Coordinates
version=1
nRows=9
nColumns=24
inDegrees=yes

Units are S.I. units (second, meters, Newtons, ...)
If the header above contains a line with 'inDegrees', this indicates whether rotational values are in degrees (yes) or radians (no).

endheader
time	pelvis_tilt	pelvis_list	pelvis_rotation	pelvis_tx	pelvis_ty	pelvis_tz	hip_flexion_r	hip_adduction_r	hip_rotation_r	knee_angle_r	ankle_angle_r	subtalar_angle_r	mtp_angle_r	hip_flexion_l	hip_adduction_l	hip_rotation_l	knee_angle_l	ankle_angle_l	subtalar_angle_l	mtp_angle_l	lumbar_extension	lumbar_bending	lumbar_rotation
     20.28000000	    -10.27553896	     -1.66856674	      6.26079591	     -0.22416545	      0.88937486	      0.07813441	     37.15432064	    -10.32711957	    -20.95133782	    -49.19743764	     16.51746335	     -1.90692263	      0.00000000	     36.53527118	    -25.16881479	    -16.48623979	    -48.45052244	      5.42655881	     35.37214632	      0.00000000	    -32.13081703	      0.28960245	      4.34276138
     20.29000000	     -9.95353026	     -1.65646482	      6.25246199	     -0.22294744	      0.89169512	      0.07776833	     36.35849671	    -10.20271182	    -21.06299901	    -48.51597626	     16.40952413	     -1.88663329	      0.00000000	     35.69267685	    -25.11048609	    -16.80715222	    -47.81546328	      5.38622035	     35.41620198	      0.00000000	    -31.88959848	      0.31110205	      4.34285445
     20.30000000	     -9.61307677	     -1.64515309	      6.23828326	     -0.22171469	      0.89402624	      0.07739007	     35.54366061	    -10.07458756	    -21.17228705	    -47.83441855	     16.29602567	     -1.83057412	      0.00000000	     34.82761381	    -25.05464771	    -17.13026908	    -47.18089252	      5.35598785	     35.47447120	      0.00000000	    -31.66859748	      0.33546123	      4.34697688
     20.31000000	     -9.26056422	     -1.63471125	      6.21782739	     -0.22046941	      0.89634260	      0.07701629	     34.72041128	     -9.93168669	    -21.25946335	    -47.15048365	     16.17790045	     -1.82660298	      0.00000000	     33.95059342	    -25.00217413	    -17.45643262	    -46.55121315	      5.31997301	     35.52372088	      0.00000000	    -31.45129865	      0.35619546	      4.35244608
     20.32000000	     -8.90051544	     -1.62268445	      6.18842183	     -0.21920328	      0.89863647	      0.07665358	     33.89536807	     -9.77416954	    -21.31758338	    -46.46696608	     16.05080189	     -1.88865774	      0.00000000	     33.06290938	    -24.94853708	    -17.78434358	    -45.92445259	      5.28664787	     35.55872461	      0.00000000	    -31.23485073	      0.37247459	      4.36153612
     20.33000000	     -8.51821245	     -1.61435514	      6.14751097	     -0.21790067	      0.90093502	      0.07629442	     33.04857534	     -9.60223531	    -21.35163481	    -45.78325564	     15.92446776	     -1.91168076	      0.00000000	     32.14773248	    -24.90305388	    -18.11470414	    -45.30059412	      5.25416696	     35.60217521	      0.00000000	    -31.03732560	      0.38184995	      4.38223663
     20.34000000	     -8.12016235	     -1.60163273	      6.09604615	     -0.21654843	      0.90321026	      0.07591010	     32.18628783	     -9.43863094	    -21.39139907	    -45.10696083	     15.80965341	     -1.91737579	      0.00000000	     31.20806361	    -24.85172674	    -18.44138223	    -44.68103645	      5.24950574	     35.66102212	      0.00000000	    -30.84525162	      0.39626583	      4.41431468
     20.35000000	     -7.70581239	     -1.59214348	      6.03414226	     -0.21515970	      0.90547243	      0.07553450	     31.30667103	     -9.26122295	    -21.40715481	    -44.42865838	     15.69909558	     -1.89270947	      0.00000000	     30.25145494	    -24.80371182	    -18.75783640	    -44.06807793	      5.24158115	     35.71586640	      0.00000000	    -30.66701139	      0.40419365	      4.45131246
     20.36000000	     -7.29192613	     -1.57992049	      5.96963406	     -0.21376442	      0.90767923	      0.07513363	     30.43212780	     -9.08310611	    -21.40283923	    -43.75319640	     15.58461149	     -1.91943210	      0.00000000	     29.30055111	    -24.74277027	    -19.05289843	    -43.46220434	      5.24065567	     35.75088153	      0.00000000	    -30.47871637	      0.41189662	      4.48985322
